<mxfile host="Electron" modified="2024-01-24T01:41:20.391Z" agent="Mozilla/5.0 (X11; Linux x86_64) AppleWebKit/537.36 (KHTML, like Gecko) draw.io/22.1.21 Chrome/120.0.6099.109 Electron/28.1.0 Safari/537.36" etag="dAiX04nRsop20UpR7TFt" version="22.1.21" type="device">
  <diagram name="Page-1" id="rPQgmT1QrtclY6KFMH24">
    <mxGraphModel dx="1490" dy="856" grid="1" gridSize="10" guides="1" tooltips="1" connect="1" arrows="1" fold="1" page="1" pageScale="1" pageWidth="850" pageHeight="1100" math="0" shadow="0">
      <root>
        <mxCell id="0" />
        <mxCell id="1" parent="0" />
      </root>
    </mxGraphModel>
  </diagram>
</mxfile>
